:FULLY-SPECIFIED
:FORCE-ALL-JOINTS-BE-3DOF
:DEGREES
2752
root -5.55876 13.9781 -28.3975 161.973 -65.1914 -161.1
lfemur -59.3632 42.8992 -6.27461
ltibia 67.7545 -0 0
lfoot -2.39584 -1.2506 0.00299481
ltoes -31.3499 0 0
rfemur -30.8998 -18.5156 21.7169
rtibia 81.7438 -0 0
rfoot -34.9801 -24.7724 0.0031165
rtoes -14.4896 0 0
lowerback 15.7618 5.8229 0.559146
upperback -4.0057 8.1307 1.49379
thorax -13.4655 3.80485 -0.856115
lowerneck -2.41239 9.61994 2.06246
upperneck 7.50595 12.5825 1.97319
head 2.80638 6.35127 0.684747
lclavicle 0 0 0
lhumerus 3.5119 10.656 83.9514
lradius 94.8497 -0 0
lwrist -19.0725 0 0
lhand -39.806 27.6571 3.55908e-05
lfingers 0 0 0
lthumb -12.7808 57.2466 3.47757e-05
rclavicle 0 0 0
rhumerus -57.7956 50.9902 -110.128
rradius 114.059 -0 0
rwrist -84.7406 0 0
rhand 4.59032 -26.9866 0.000505783
rfingers 0 0 0
rthumb 29.9791 -54.5771 0.000661142
2753
root -5.56875 13.9693 -28.4041 161.99 -65.2013 -161.117
lfemur -59.4207 42.9469 -6.26611
ltibia 67.8789 -0 0
lfoot -2.43997 -1.30896 0.0038759
ltoes -31.3551 0 0
rfemur -30.8926 -18.5302 21.7022
rtibia 81.8368 -0 0
rfoot -35.0718 -24.8016 0.0040334
rtoes -14.4849 0 0
lowerback 15.7417 5.82231 0.549114
upperback -4.01482 8.12799 1.49525
thorax -13.4658 3.80467 -0.846748
lowerneck -2.41354 9.61966 2.06467
upperneck 7.52916 12.5815 1.97303
head 2.81471 6.35081 0.685349
lclavicle 0 0 0
lhumerus 3.50666 10.6792 83.9511
lradius 94.8402 -0 0
lwrist -19.078 0 0
lhand -39.8032 27.6679 4.60615e-05
lfingers 0 0 0
lthumb -12.778 57.2575 4.50066e-05
rclavicle 0 0 0
rhumerus -57.8114 50.9696 -110.145
rradius 114.055 -0 0
rwrist -84.7353 0 0
rhand 4.62046 -26.9721 0.000654584
rfingers 0 0 0
rthumb 30.0078 -54.5573 0.000855649
2754
root -5.57865 13.9602 -28.4109 162.009 -65.212 -161.136
lfemur -59.4827 42.9985 -6.25699
ltibia 68.0133 -0 0
lfoot -2.48763 -1.372 0.004777
ltoes -31.3607 0 0
rfemur -30.8848 -18.5459 21.6863
rtibia 81.9373 -0 0
rfoot -35.1708 -24.8332 0.00497114
rtoes -14.4798 0 0
lowerback 15.72 5.82166 0.538279
upperback -4.02467 8.12506 1.49684
thorax -13.466 3.80446 -0.836633
lowerneck -2.41478 9.61935 2.06706
upperneck 7.55422 12.5804 1.97286
head 2.8237 6.35031 0.685999
lclavicle 0 0 0
lhumerus 3.50101 10.7043 83.9507
lradius 94.83 -0 0
lwrist -19.0839 0 0
lhand -39.8001 27.6795 5.677e-05
lfingers 0 0 0
lthumb -12.7751 57.2693 5.54698e-05
rclavicle 0 0 0
rhumerus -57.8285 50.9474 -110.162
rradius 114.051 -0 0
rwrist -84.7295 0 0
rhand 4.65301 -26.9565 0.000806763
rfingers 0 0 0
rthumb 30.0389 -54.5359 0.00105457
2755
root -5.58845 13.951 -28.4177 162.029 -65.2234 -161.157
lfemur -59.5491 43.0535 -6.24733
ltibia 68.1568 -0 0
lfoot -2.53856 -1.43935 0.00568187
ltoes -31.3668 0 0
rfemur -30.8764 -18.5628 21.6692
rtibia 82.0446 -0 0
rfoot -35.2766 -24.8669 0.00591282
rtoes -14.4743 0 0
lowerback 15.6968 5.82097 0.526703
upperback -4.03519 8.12193 1.49853
thorax -13.4663 3.80425 -0.825824
lowerneck -2.4161 9.61903 2.0696
upperneck 7.58101 12.5792 1.97267
head 2.83332 6.34978 0.686694
lclavicle 0 0 0
lhumerus 3.49497 10.7311 83.9502
lradius 94.819 -0 0
lwrist -19.0902 0 0
lhand -39.7968 27.692 6.75231e-05
lfingers 0 0 0
lthumb -12.7719 57.2819 6.59767e-05
rclavicle 0 0 0
rhumerus -57.8467 50.9237 -110.181
rradius 114.047 -0 0
rwrist -84.7233 0 0
rhand 4.6878 -26.9399 0.000959578
rfingers 0 0 0
rthumb 30.0721 -54.5131 0.00125433
2756
root -5.59815 13.9415 -28.4245 162.05 -65.2356 -161.178
lfemur -59.6195 43.1118 -6.23719
ltibia 68.3088 -0 0
lfoot -2.59249 -1.51067 0.00657474
ltoes -31.3731 0 0
rfemur -30.8676 -18.5806 21.6512
rtibia 82.1583 -0 0
rfoot -35.3886 -24.9027 0.006842
rtoes -14.4686 0 0
lowerback 15.6723 5.82023 0.514445
upperback -4.04633 8.11862 1.50032
thorax -13.4666 3.80402 -0.814379
lowerneck -2.41751 9.61868 2.0723
upperneck 7.60937 12.578 1.97247
head 2.84349 6.34921 0.68743
lclavicle 0 0 0
lhumerus 3.48858 10.7594 83.9497
lradius 94.8074 -0 0
lwrist -19.0969 0 0
lhand -39.7934 27.7051 7.81335e-05
lfingers 0 0 0
lthumb -12.7686 57.2953 7.63441e-05
rclavicle 0 0 0
rhumerus -57.8659 50.8986 -110.201
rradius 114.043 -0 0
rwrist -84.7168 0 0
rhand 4.72463 -26.9222 0.00111037
rfingers 0 0 0
rthumb 30.1072 -54.4889 0.00145143
2757
root -5.60774 13.932 -28.4314 162.072 -65.2483 -161.201
lfemur -59.6934 43.1731 -6.22663
ltibia 68.4685 -0 0
lfoot -2.64915 -1.5856 0.00744051
ltoes -31.3798 0 0
rfemur -30.8583 -18.5993 21.6323
rtibia 82.2777 -0 0
rfoot -35.5063 -24.9402 0.00774299
rtoes -14.4625 0 0
lowerback 15.6465 5.81945 0.501568
upperback -4.05804 8.11514 1.5022
thorax -13.4669 3.80378 -0.802354
lowerneck -2.41898 9.61832 2.07514
upperneck 7.63916 12.5767 1.97226
head 2.85419 6.34862 0.688202
lclavicle 0 0 0
lhumerus 3.48186 10.7892 83.9492
lradius 94.7952 -0 0
lwrist -19.1039 0 0
lhand -39.7897 27.7189 8.84218e-05
lfingers 0 0 0
lthumb -12.765 57.3093 8.63968e-05
rclavicle 0 0 0
rhumerus -57.8861 50.8722 -110.222
rradius 114.039 -0 0
rwrist -84.7099 0 0
rhand 4.76332 -26.9037 0.00125657
rfingers 0 0 0
rthumb 30.1441 -54.4635 0.00164255
2758
root -5.61719 13.9223 -28.4384 162.095 -65.2616 -161.224
lfemur -59.7706 43.2371 -6.21571
ltibia 68.6351 -0 0
lfoot -2.70828 -1.66379 0.00826492
ltoes -31.3868 0 0
rfemur -30.8485 -18.6189 21.6125
rtibia 82.4023 -0 0
rfoot -35.6291 -24.9794 0.00860095
rtoes -14.4562 0 0
lowerback 15.6196 5.81862 0.48813
upperback -4.07025 8.11151 1.50417
thorax -13.4672 3.80353 -0.789807
lowerneck -2.42052 9.61794 2.0781
upperneck 7.67025 12.5753 1.97205
head 2.86535 6.348 0.689008
lclavicle 0 0 0
lhumerus 3.47485 10.8203 83.9487
lradius 94.7825 -0 0
lwrist -19.1113 0 0
lhand -39.7859 27.7334 9.82184e-05
lfingers 0 0 0
lthumb -12.7614 57.3239 9.5969e-05
rclavicle 0 0 0
rhumerus -57.9072 50.8446 -110.244
rradius 114.034 -0 0
rwrist -84.7027 0 0
rhand 4.8037 -26.8844 0.0013958
rfingers 0 0 0
rthumb 30.1826 -54.437 0.00182454
2759
root -5.62651 13.9125 -28.4453 162.119 -65.2753 -161.249
lfemur -59.8508 43.3034 -6.2045
ltibia 68.8079 -0 0
lfoot -2.7696 -1.74488 0.00903471
ltoes -31.3941 0 0
rfemur -30.8385 -18.6392 21.592
rtibia 82.5315 -0 0
rfoot -35.7565 -25.02 0.00940207
rtoes -14.4497 0 0
lowerback 15.5917 5.81776 0.474194
upperback -4.08292 8.10775 1.50621
thorax -13.4675 3.80327 -0.776793
lowerneck -2.42212 9.61755 2.08117
upperneck 7.7025 12.5739 1.97182
head 2.87692 6.34736 0.689844
lclavicle 0 0 0
lhumerus 3.46757 10.8525 83.9482
lradius 94.7693 -0 0
lwrist -19.1189 0 0
lhand -39.782 27.7483 0.000107366
lfingers 0 0 0
lthumb -12.7576 57.3391 0.000104907
rclavicle 0 0 0
rhumerus -57.929 50.8161 -110.266
rradius 114.03 -0 0
rwrist -84.6953 0 0
rhand 4.84558 -26.8643 0.0015258
rfingers 0 0 0
rthumb 30.2225 -54.4095 0.00199447
2760
root -5.63568 13.9027 -28.4522 162.144 -65.2895 -161.274
lfemur -59.9336 43.3718 -6.19306
ltibia 68.9862 -0 0
lfoot -2.83285 -1.82853 0.00973779
ltoes -31.4016 0 0
rfemur -30.8281 -18.6601 21.5708
rtibia 82.6648 -0 0
rfoot -35.8879 -25.0619 0.0101338
rtoes -14.4429 0 0
lowerback 15.5629 5.81687 0.45982
upperback -4.09599 8.10387 1.50831
thorax -13.4679 3.803 -0.763371
lowerneck -2.42377 9.61715 2.08433
upperneck 7.73576 12.5725 1.97158
head 2.88886 6.3467 0.690706
lclavicle 0 0 0
lhumerus 3.46007 10.8858 83.9476
lradius 94.7556 -0 0
lwrist -19.1267 0 0
lhand -39.7779 27.7637 0.000115721
lfingers 0 0 0
lthumb -12.7536 57.3547 0.000113071
rclavicle 0 0 0
rhumerus -57.9514 50.7866 -110.29
rradius 114.025 -0 0
rwrist -84.6876 0 0
rhand 4.88878 -26.8436 0.00164453
rfingers 0 0 0
rthumb 30.2637 -54.3812 0.00214967
2761
root -5.64469 13.8928 -28.4591 162.169 -65.3041 -161.3
lfemur -60.0186 43.4421 -6.18144
ltibia 69.1691 -0 0
lfoot -2.89777 -1.91437 0.0103633
ltoes -31.4093 0 0
rfemur -30.8174 -18.6815 21.5491
rtibia 82.8017 -0 0
rfoot -36.0227 -25.1049 0.0107848
rtoes -14.436 0 0
lowerback 15.5334 5.81594 0.445069
upperback -4.1094 8.09988 1.51047
thorax -13.4682 3.80273 -0.749595
lowerneck -2.42546 9.61673 2.08758
upperneck 7.7699 12.571 1.97134
head 2.90111 6.34602 0.691591
lclavicle 0 0 0
lhumerus 3.45236 10.9199 83.947
lradius 94.7417 -0 0
lwrist -19.1347 0 0
lhand -39.7737 27.7796 0.000123154
lfingers 0 0 0
lthumb -12.7496 57.3708 0.000120334
rclavicle 0 0 0
rhumerus -57.9745 50.7563 -110.313
rradius 114.02 -0 0
rwrist -84.6797 0 0
rhand 4.93311 -26.8224 0.00175016
rfingers 0 0 0
rthumb 30.306 -54.3521 0.00228775
2762
root -5.65353 13.883 -28.4659 162.195 -65.319 -161.327
lfemur -60.1055 43.5139 -6.16971
ltibia 69.356 -0 0
lfoot -2.96408 -2.00207 0.0109019
ltoes -31.4171 0 0
rfemur -30.8064 -18.7034 21.5269
rtibia 82.9414 -0 0
rfoot -36.1605 -25.1489 0.0113453
rtoes -14.4289 0 0
lowerback 15.5032 5.81499 0.430001
upperback -4.1231 8.09581 1.51268
thorax -13.4686 3.80245 -0.735523
lowerneck -2.42718 9.61631 2.0909
upperneck 7.80476 12.5695 1.97109
head 2.91362 6.34532 0.692494
lclavicle 0 0 0
lhumerus 3.44449 10.9548 83.9464
lradius 94.7274 -0 0
lwrist -19.143 0 0
lhand -39.7694 27.7958 0.000129554
lfingers 0 0 0
lthumb -12.7455 57.3872 0.000126587
rclavicle 0 0 0
rhumerus -57.9979 50.7254 -110.338
rradius 114.015 -0 0
rwrist -84.6717 0 0
rhand 4.97839 -26.8007 0.00184111
rfingers 0 0 0
rthumb 30.3492 -54.3224 0.00240664
2763
root -5.6622 13.8731 -28.4727 162.222 -65.3341 -161.354
lfemur -60.194 43.5869 -6.15792
ltibia 69.5461 -0 0
lfoot -3.03152 -2.09125 0.0113455
ltoes -31.4251 0 0
rfemur -30.7953 -18.7257 21.5043
rtibia 83.0835 -0 0
rfoot -36.3005 -25.1935 0.011807
rtoes -14.4217 0 0
lowerback 15.4726 5.81401 0.414678
upperback -4.13703 8.09168 1.51493
thorax -13.4689 3.80216 -0.721212
lowerneck -2.42894 9.61588 2.09428
upperneck 7.84022 12.5679 1.97084
head 2.92635 6.34461 0.693413
lclavicle 0 0 0
lhumerus 3.43649 10.9902 83.9458
lradius 94.7129 -0 0
lwrist -19.1513 0 0
lhand -39.7651 27.8122 0.000134825
lfingers 0 0 0
lthumb -12.7413 57.4038 0.000131737
rclavicle 0 0 0
rhumerus -58.0218 50.6939 -110.362
rradius 114.009 -0 0
rwrist -84.6635 0 0
rhand 5.02445 -26.7787 0.00191603
rfingers 0 0 0
rthumb 30.3931 -54.2921 0.00250457
2764
root -5.67067 13.8633 -28.4794 162.249 -65.3494 -161.382
lfemur -60.2837 43.6608 -6.14613
ltibia 69.7385 -0 0
lfoot -3.09982 -2.18157 0.0116878
ltoes -31.4332 0 0
rfemur -30.784 -18.7482 21.4814
rtibia 83.2275 -0 0
rfoot -36.4424 -25.2388 0.0121632
rtoes -14.4144 0 0
lowerback 15.4415 5.81301 0.399159
upperback -4.15114 8.08749 1.51721
thorax -13.4693 3.80187 -0.706719
lowerneck -2.43072 9.61544 2.0977
upperneck 7.87614 12.5664 1.97058
head 2.93924 6.3439 0.694343
lclavicle 0 0 0
lhumerus 3.42838 11.0261 83.9451
lradius 94.6981 -0 0
lwrist -19.1598 0 0
lhand -39.7607 27.8289 0.000138893
lfingers 0 0 0
lthumb -12.7371 57.4207 0.000135712
rclavicle 0 0 0
rhumerus -58.0459 50.6621 -110.387
rradius 114.004 -0 0
rwrist -84.6552 0 0
rhand 5.07109 -26.7563 0.00197383
rfingers 0 0 0
rthumb 30.4376 -54.2615 0.00258013
2765
root -5.67893 13.8535 -28.486 162.276 -65.3648 -161.409
lfemur -60.3743 43.7354 -6.13438
ltibia 69.9327 -0 0
lfoot -3.16872 -2.27268 0.011924
ltoes -31.4413 0 0
rfemur -30.7726 -18.771 21.4583
rtibia 83.3727 -0 0
rfoot -36.5855 -25.2845 0.012409
rtoes -14.407 0 0
lowerback 15.4102 5.812 0.383506
upperback -4.16537 8.08326 1.5195
thorax -13.4697 3.80158 -0.692099
lowerneck -2.43251 9.61501 2.10114
upperneck 7.91236 12.5648 1.97032
head 2.95224 6.34318 0.695281
lclavicle 0 0 0
lhumerus 3.4202 11.0623 83.9445
lradius 94.6833 -0 0
lwrist -19.1683 0 0
lhand -39.7563 27.8457 0.000141699
lfingers 0 0 0
lthumb -12.7328 57.4378 0.000138454
rclavicle 0 0 0
rhumerus -58.0701 50.6299 -110.412
rradius 113.999 -0 0
rwrist -84.6469 0 0
rhand 5.11814 -26.7338 0.00201372
rfingers 0 0 0
rthumb 30.4825 -54.2306 0.00263226
